<svg xmlns="http://www.w3.org/2000/svg" width="100" height="90"><path fill-rule="evenodd" fill="#FFF" d="M48.556.22c-3.036 0-6.376 2.235-7.026 5.559h-.183L18.283 31.742h11.532l15.953-17.937c.859.365 1.803.636 2.788.636 1.002 0 1.928-.271 2.804-.636l15.935 17.937h11.55L55.765 5.779h-.185C54.95 2.455 52.76.22 48.556.22zM6.753 37.503c-3.198 0-5.775 3.297-5.775 5.775v2.882c0 3.043 2.336 5.437 5.325 5.678l9.094 31.806c2.886 5.772 5.775 5.772 9.003 5.772h51.557c2.888 0 5.757 0 8.645-5.772l9.112-31.806c2.969-.241 5.496-2.635 5.496-5.678v-2.882c0-2.478-2.752-5.775-5.946-5.775H6.753zm16.221 14.418h1.434c3.198 0 6.352 2.408 7.026 5.407l4.056 17.94c.677 3.013-.52 5.49-4.591 5.49h-1.452c-3.192 0-6.346-2.477-7.024-5.49l-4.055-17.94c-.674-2.999 1.408-5.407 4.606-5.407zm27.826 0c2.403 0 4.965 2.577 4.965 5.775v17.301c0 3.198-2.562 5.761-4.965 5.761-3.99 0-6.566-2.563-6.566-5.761V57.696c0-3.198 2.576-5.775 6.566-5.775zm24.791 0h1.839c2.807 0 4.875 2.408 4.201 5.407l-4.055 17.94c-.678 3.013-3.828 5.49-7.026 5.49h-.57c-4.075 0-6.145-2.477-5.471-5.49l4.056-17.94c.677-2.999 3.828-5.407 7.026-5.407z"/></svg>