<svg xmlns="http://www.w3.org/2000/svg" width="78" height="108"><path fill-rule="evenodd" fill="#FFF" d="M75.689 25.115l-6.568 10.544-32.789-20.413 6.563-10.545C45.792.44 51.919-1.381 56.58 1.517l15.927 9.916c4.657 2.898 6.079 9.025 3.182 13.682zm-39.42 63.192L3.552 67.898l30.283-48.541 32.719 20.426-30.285 48.524zm4.416-56.66c-1.54-.958-3.522.203-4.4.871L14.756 67.6c-.905.818-.389 2.772 1.161 3.733 1.526.965 3.508.567 4.405-.84l21.525-34.499c.898-1.431.369-3.391-1.162-4.347zM52.54 39.43c-.84-.46-3.41-.952-4.406.482L26.6 74.409c-.888 1.407-.364 3.376 1.166 4.317 1.541.975 3.52.573 4.413-.839l21.535-34.483c.887-1.448 1.056-3.274-1.174-3.974zm-33.731 60.812c-1.586-3.328-4.073-6.278-7.432-8.369C8.2 89.782 4.279 88.856.597 88.899L.3 73.686 32.693 94.85l-13.884 5.392zm-9.22-5.507a15.524 15.524 0 016.016 6.923l-14.268 6.326-.609-15.592c3.02-.121 6.103.838 8.861 2.343z"/></svg>