<svg xmlns="http://www.w3.org/2000/svg" width="96" height="83"><path fill-rule="evenodd" fill="#FFF" d="M12.153.973A11.157 11.157 0 00.979 12.16v42.58c0 5.53 4.98 10.512 11.174 10.512h25.146v8.375H26.125a2.8 2.8 0 00-2.797 2.798v5.745h50.306v-5.745a2.8 2.8 0 00-2.797-2.798H59.662v-8.375h25.146c6.392 0 11.174-4.982 11.174-10.512V12.16C95.982 5.967 91.2.973 84.808.973H12.153zm2.798 11.187H82.11c1.456 0 2.698 1.243 2.698 2.784V51.28c0 1.54-1.242 3.46-2.698 3.46H14.951c-1.542 0-2.798-1.92-2.798-3.46V14.944a2.79 2.79 0 012.798-2.784z"/></svg>