<svg 
 xmlns="http://www.w3.org/2000/svg"
 xmlns:xlink="http://www.w3.org/1999/xlink"
 width="100px" height="90px">
<path fill-rule="evenodd"  fill="rgb(255, 255, 255)"
 d="M48.556,0.22 C45.52,0.22 42.180,2.455 41.530,5.779 L41.347,5.779 L18.283,31.742 L29.815,31.742 L45.768,13.805 C46.627,14.170 47.571,14.441 48.556,14.441 C49.558,14.441 50.484,14.170 51.360,13.805 L67.295,31.742 L78.845,31.742 L55.765,5.779 L55.580,5.779 C54.950,2.455 52.76,0.22 48.556,0.22 L48.556,0.22 ZM6.753,37.503 C3.555,37.503 0.978,40.80 0.978,43.278 L0.978,46.160 C0.978,49.203 3.314,51.597 6.303,51.838 L15.397,83.644 C18.283,89.416 21.172,89.416 24.40,89.416 L75.957,89.416 C78.845,89.416 81.714,89.416 84.602,83.644 L93.714,51.838 C96.683,51.597 99.21,49.203 99.21,46.160 L99.21,43.278 C99.21,40.80 96.458,37.503 93.264,37.503 L6.753,37.503 L6.753,37.503 ZM22.974,51.921 L24.408,51.921 C27.606,51.921 30.760,54.329 31.434,57.328 L35.490,75.268 C36.167,78.281 34.97,80.758 30.899,80.758 L29.447,80.758 C26.255,80.758 23.101,78.281 22.423,75.268 L18.368,57.328 C17.694,54.329 19.776,51.921 22.974,51.921 L22.974,51.921 ZM50.8,51.921 C53.203,51.921 55.765,54.498 55.765,57.696 L55.765,74.997 C55.765,78.195 53.203,80.758 50.8,80.758 C46.810,80.758 44.234,78.195 44.234,74.997 L44.234,57.696 C44.234,54.498 46.810,51.921 50.8,51.921 L50.8,51.921 ZM75.591,51.921 L77.43,51.921 C80.237,51.921 82.305,54.329 81.631,57.328 L77.576,75.268 C76.898,78.281 73.748,80.758 70.550,80.758 L69.98,80.758 C65.905,80.758 63.835,78.281 64.509,75.268 L68.565,57.328 C69.242,54.329 72.393,51.921 75.591,51.921 L75.591,51.921 Z"/>
</svg>