<svg 
 xmlns="http://www.w3.org/2000/svg"
 xmlns:xlink="http://www.w3.org/1999/xlink"
 width="78px" height="108px">
<path fill-rule="evenodd"  fill="rgb(255, 255, 255)"
 d="M75.689,25.115 L69.121,35.659 L36.332,15.246 L42.895,4.701 C45.792,0.44 51.919,-1.381 56.580,1.517 L72.507,11.433 C77.164,14.331 78.586,20.458 75.689,25.115 ZM36.269,88.307 L3.552,67.898 L33.835,19.357 L66.554,39.783 L36.269,88.307 ZM40.685,31.647 C39.145,30.689 37.163,31.85 36.285,32.518 L14.756,67.6 C13.851,68.418 14.367,70.372 15.917,71.333 C17.443,72.298 19.425,71.900 20.322,70.493 L41.847,35.994 C42.745,34.563 42.216,32.603 40.685,31.647 ZM52.540,39.43 C51.7,38.97 49.13,38.478 48.134,39.912 L26.600,74.409 C25.712,75.816 26.236,77.785 27.766,78.726 C29.307,79.701 31.286,79.299 32.179,77.887 L53.714,43.404 C54.601,41.956 54.77,40.13 52.540,39.43 ZM18.809,100.242 C17.223,96.914 14.736,93.964 11.377,91.873 C8.20,89.782 4.279,88.856 0.597,88.899 L0.3,73.686 L32.693,94.85 L18.809,100.242 ZM9.589,94.735 C12.349,96.453 14.382,98.893 15.605,101.658 L1.337,107.984 L0.728,92.392 C3.748,92.271 6.831,93.23 9.589,94.735 Z"/>
</svg>