<svg 
 xmlns="http://www.w3.org/2000/svg"
 xmlns:xlink="http://www.w3.org/1999/xlink"
 width="96px" height="83px">
<path fill-rule="evenodd"  fill="rgb(255, 255, 255)"
 d="M12.153,0.973 C5.959,0.973 0.979,5.967 0.979,12.160 L0.979,54.74 C0.979,60.270 5.959,65.252 12.153,65.252 L37.299,65.252 L37.299,73.627 L26.125,73.627 C24.583,73.627 23.328,74.881 23.328,76.425 L23.328,82.17 L73.634,82.17 L73.634,76.425 C73.634,74.881 72.378,73.627 70.837,73.627 L59.662,73.627 L59.662,65.252 L84.808,65.252 C91.2,65.252 95.982,60.270 95.982,54.74 L95.982,12.160 C95.982,5.967 91.2,0.973 84.808,0.973 L12.153,0.973 L12.153,0.973 ZM14.951,12.160 L82.11,12.160 C83.566,12.160 84.808,13.403 84.808,14.944 L84.808,51.280 C84.808,52.820 83.566,54.74 82.11,54.74 L14.951,54.74 C13.409,54.74 12.153,52.820 12.153,51.280 L12.153,14.944 C12.153,13.403 13.409,12.160 14.951,12.160 L14.951,12.160 Z"/>
</svg>